<?xml version="1.0" encoding="utf-8"?>
<!-- Generator: Adobe Illustrator 16.0.4, SVG Export Plug-In . SVG Version: 6.00 Build 0)  -->
<!DOCTYPE svg PUBLIC "-//W3C//DTD SVG 1.1//EN" "http://www.w3.org/Graphics/SVG/1.1/DTD/svg11.dtd">
<svg version="1.1" id="Layer_1" xmlns="http://www.w3.org/2000/svg" xmlns:xlink="http://www.w3.org/1999/xlink" x="0px" y="0px"
	 width="650px" height="650px" viewBox="0 0 650 650" enable-background="new 0 0 650 650" xml:space="preserve">
<path fill="#3E4854" d="M648.001,0h-52h-2h-52h-2h-52h-2h-52h-2h-52h-2h-52h-2h-52h-2h-52h-2h-52h-2h-52h-2h-52h-2h-52h-2v2v52v2v52
	v2v52v2v52v2v52v2v52v2v52v2v52v2v52v2v52v2v52v2v52v2h2h52h2h52h2h52h2h52h2h52h2h52h2h52h2h52h2h52h2h52h2h52h2h52h2v-2v-52v-2
	v-52v-2v-52v-2v-52v-2v-52v-2v-52v-2v-52v-2v-52v-2v-52v-2v-52v-2V56v-2V2V0H648.001z M594.001,2v52h-52V2H594.001z M324.001,326v52
	h-52v-52H324.001z M272.001,324v-52h52v52H272.001z M326.001,326h52v52h-52V326z M326.001,324v-52h52v52H326.001z M326.001,270v-52
	h52v52H326.001z M324.001,270h-52v-52h52V270z M270.001,270h-52v-52h52V270z M270.001,272v52h-52v-52H270.001z M270.001,326v52h-52
	v-52H270.001z M270.001,380v52h-52v-52H270.001z M272.001,380h52v52h-52V380z M326.001,380h52v52h-52V380z M380.001,380h52v52h-52
	V380z M380.001,378v-52h52v52H380.001z M380.001,324v-52h52v52H380.001z M380.001,270v-52h52v52H380.001z M380.001,216v-52h52v52
	H380.001z M378.001,216h-52v-52h52V216z M324.001,216h-52v-52h52V216z M270.001,216h-52v-52h52V216z M216.001,216h-52v-52h52V216z
	 M216.001,218v52h-52v-52H216.001z M216.001,272v52h-52v-52H216.001z M216.001,326v52h-52v-52H216.001z M216.001,380v52h-52v-52
	H216.001z M216.001,434v52h-52v-52H216.001z M218.001,434h52v52h-52V434z M272.001,434h52v52h-52V434z M326.001,434h52v52h-52V434z
	 M380.001,434h52v52h-52V434z M434.001,434h52v52h-52V434z M434.001,432v-52h52v52H434.001z M434.001,378v-52h52v52H434.001z
	 M434.001,324v-52h52v52H434.001z M434.001,270v-52h52v52H434.001z M434.001,216v-52h52v52H434.001z M434.001,162v-52h52v52H434.001
	z M432.001,162h-52v-52h52V162z M378.001,162h-52v-52h52V162z M324.001,162h-52v-52h52V162z M270.001,162h-52v-52h52V162z
	 M216.001,162h-52v-52h52V162z M162.001,162h-52v-52h52V162z M162.001,164v52h-52v-52H162.001z M162.001,218v52h-52v-52H162.001z
	 M162.001,272v52h-52v-52H162.001z M162.001,326v52h-52v-52H162.001z M162.001,380v52h-52v-52H162.001z M162.001,434v52h-52v-52
	H162.001z M162.001,488v52h-52v-52H162.001z M164.001,488h52v52h-52V488z M218.001,488h52v52h-52V488z M272.001,488h52v52h-52V488z
	 M326.001,488h52v52h-52V488z M380.001,488h52v52h-52V488z M434.001,488h52v52h-52V488z M488.001,488h52v52h-52V488z M488.001,486
	v-52h52v52H488.001z M488.001,432v-52h52v52H488.001z M488.001,378v-52h52v52H488.001z M488.001,324v-52h52v52H488.001z
	 M488.001,270v-52h52v52H488.001z M488.001,216v-52h52v52H488.001z M488.001,162v-52h52v52H488.001z M488.001,108V56h52v52H488.001z
	 M486.001,108h-52V56h52V108z M432.001,108h-52V56h52V108z M378.001,108h-52V56h52V108z M324.001,108h-52V56h52V108z M270.001,108
	h-52V56h52V108z M216.001,108h-52V56h52V108z M162.001,108h-52V56h52V108z M108.001,108h-52V56h52V108z M108.001,110v52h-52v-52
	H108.001z M108.001,164v52h-52v-52H108.001z M108.001,218v52h-52v-52H108.001z M108.001,272v52h-52v-52H108.001z M108.001,326v52
	h-52v-52H108.001z M108.001,380v52h-52v-52H108.001z M108.001,434v52h-52v-52H108.001z M108.001,488v52h-52v-52H108.001z
	 M108.001,542v52h-52v-52H108.001z M110.001,542h52v52h-52V542z M164.001,542h52v52h-52V542z M218.001,542h52v52h-52V542z
	 M272.001,542h52v52h-52V542z M326.001,542h52v52h-52V542z M380.001,542h52v52h-52V542z M434.001,542h52v52h-52V542z M488.001,542
	h52v52h-52V542z M542.001,542h52v52h-52V542z M542.001,540v-52h52v52H542.001z M542.001,486v-52h52v52H542.001z M542.001,432v-52h52
	v52H542.001z M542.001,378v-52h52v52H542.001z M542.001,324v-52h52v52H542.001z M542.001,270v-52h52v52H542.001z M542.001,216v-52
	h52v52H542.001z M542.001,162v-52h52v52H542.001z M542.001,108V56h52v52H542.001z M540.001,2v52h-52V2H540.001z M486.001,2v52h-52V2
	H486.001z M432.001,2v52h-52V2H432.001z M378.001,2v52h-52V2H378.001z M324.001,2v52h-52V2H324.001z M270.001,2v52h-52V2H270.001z
	 M216.001,2v52h-52V2H216.001z M162.001,2v52h-52V2H162.001z M108.001,2v52h-52V2H108.001z M2.001,2h52v52h-52V2z M2.001,56h52v52
	h-52V56z M2.001,110h52v52h-52V110z M2.001,164h52v52h-52V164z M2.001,218h52v52h-52V218z M2.001,272h52v52h-52V272z M2.001,326h52
	v52h-52V326z M2.001,380h52v52h-52V380z M2.001,434h52v52h-52V434z M2.001,488h52v52h-52V488z M2.001,542h52v52h-52V542z M2.001,648
	v-52h52v52H2.001z M56.001,648v-52h52v52H56.001z M110.001,648v-52h52v52H110.001z M164.001,648v-52h52v52H164.001z M218.001,648
	v-52h52v52H218.001z M272.001,648v-52h52v52H272.001z M326.001,648v-52h52v52H326.001z M380.001,648v-52h52v52H380.001z
	 M434.001,648v-52h52v52H434.001z M488.001,648v-52h52v52H488.001z M542.001,648v-52h52v52H542.001z M648.001,648h-52v-52h52V648z
	 M648.001,594h-52v-52h52V594z M648.001,540h-52v-52h52V540z M648.001,486h-52v-52h52V486z M648.001,432h-52v-52h52V432z
	 M648.001,378h-52v-52h52V378z M648.001,324h-52v-52h52V324z M648.001,270h-52v-52h52V270z M648.001,216h-52v-52h52V216z
	 M648.001,162h-52v-52h52V162z M648.001,108h-52V56h52V108z M648.001,54h-52V2h52V54z"/>
<circle fill="#3E4854" cx="162.953" cy="163.046" r="6"/>
<circle fill="#3E4854" cx="486.953" cy="163.046" r="6"/>
<circle fill="#3E4854" cx="162.953" cy="487.072" r="6"/>
<circle fill="#3E4854" cx="486.953" cy="487.072" r="6"/>
</svg>
