<?xml version="1.0" encoding="utf-8"?>
<!-- Generator: Adobe Illustrator 19.2.1, SVG Export Plug-In . SVG Version: 6.00 Build 0)  -->
<svg version="1.1" id="Layer_1" xmlns="http://www.w3.org/2000/svg" xmlns:xlink="http://www.w3.org/1999/xlink" x="0px" y="0px"
	 viewBox="0 0 974 974" style="enable-background:new 0 0 974 974;" xml:space="preserve">
<path d="M972,0h-52h-2h-52h-2h-52h-2h-52h-2h-52h-2h-52h-2h-52h-2h-52h-2h-52h-2h-52h-2h-52h-2h-52h-2h-52h-2h-52h-2h-52h-2h-52h-2
	H56h-2H2H0v2v52v2v52v2v52v2v52v2v52v2v52v2v52v2v52v2v52v2v52v2v52v2v52v2v52v2v52v2v52v2v52v2v52v2v52v2h2h52h2h52h2h52h2h52h2h52
	h2h52h2h52h2h52h2h52h2h52h2h52h2h52h2h52h2h52h2h52h2h52h2h52h2h52h2v-2v-52v-2v-52v-2v-52v-2v-52v-2v-52v-2v-52v-2v-52v-2v-52v-2
	v-52v-2v-52v-2v-52v-2v-52v-2v-52v-2v-52v-2v-52v-2v-52v-2V56v-2V2V0H972z M54,972H2v-52h52V972z M54,918H2v-52h52V918z M54,864H2
	v-52h52V864z M54,810H2v-52h52V810z M54,756H2v-52h52V756z M54,702H2v-52h52V702z M54,648H2v-52h52V648z M54,594H2v-52h52V594z
	 M54,540H2v-52h52V540z M54,486H2v-52h52V486z M54,432H2v-52h52V432z M54,378H2v-52h52V378z M54,324H2v-52h52V324z M54,270H2v-52h52
	V270z M54,216H2v-52h52V216z M54,162H2v-52h52V162z M54,108H2V56h52V108z M54,54H2V2h52V54z M108,972H56v-52h52V972z M108,918H56
	v-52h52V918z M108,864H56v-52h52V864z M108,810H56v-52h52V810z M108,756H56v-52h52V756z M108,702H56v-52h52V702z M108,648H56v-52h52
	V648z M108,594H56v-52h52V594z M108,540H56v-52h52V540z M108,486H56v-52h52V486z M108,432H56v-52h52V432z M108,378H56v-52h52V378z
	 M108,324H56v-52h52V324z M108,270H56v-52h52V270z M108,216H56v-52h52V216z M108,162H56v-52h52V162z M108,108H56V56h52V108z M108,54
	H56V2h52V54z M110,2h52v52h-52V2z M110,56h52v52h-52V56z M110,110h52v47.1c-2.5,0.4-4.5,2.4-4.9,4.9H110V110z M110,164h47.1
	c0.4,2.5,2.4,4.5,4.9,4.9V216h-52V164z M110,218h52v52h-52V218z M110,272h52v52h-52V272z M110,326h52v52h-52V326z M110,380h52v52
	h-52V380z M110,434h52v47.1c-2.5,0.4-4.5,2.4-4.9,4.9H110V434z M110,488h47.1c0.4,2.5,2.4,4.5,4.9,4.9V540h-52V488z M110,542h52v52
	h-52V542z M110,596h52v52h-52V596z M110,650h52v52h-52V650z M110,704h52v52h-52V704z M110,758h52v47.6c-2.4,0.3-4.4,2.1-5,4.4h-47
	V758z M162,972h-52v-52h52V972z M162,918h-52v-52h52V918z M110,864v-52h46.8c0.2,2.8,2.4,5.1,5.2,5.4V864H110z M216,972h-52v-52h52
	V972z M216,918h-52v-52h52V918z M216,864h-52v-46.6c2.6-0.5,4.6-2.7,4.8-5.4H216V864z M216,810h-47.4c-0.6-2.2-2.4-3.9-4.6-4.4V758
	h52V810z M216,756h-52v-52h52V756z M216,702h-52v-52h52V702z M216,648h-52v-52h52V648z M216,594h-52v-52h52V594z M216,540h-52v-47.1
	c2.5-0.4,4.5-2.4,4.9-4.9H216V540z M216,486h-47.1c-0.4-2.5-2.4-4.5-4.9-4.9V434h52V486z M216,432h-52v-52h52V432z M216,378h-52v-52
	h52V378z M216,324h-52v-52h52V324z M216,270h-52v-52h52V270z M216,216h-52v-47.1c2.5-0.4,4.5-2.4,4.9-4.9H216V216z M216,162h-47.1
	c-0.4-2.5-2.4-4.5-4.9-4.9V110h52V162z M216,108h-52V56h52V108z M216,54h-52V2h52V54z M270,972h-52v-52h52V972z M270,918h-52v-52h52
	V918z M270,864h-52v-52h52V864z M270,810h-52v-52h52V810z M270,756h-52v-52h52V756z M270,702h-52v-52h52V702z M270,648h-52v-52h52
	V648z M270,594h-52v-52h52V594z M270,540h-52v-52h52V540z M270,486h-52v-52h52V486z M270,432h-52v-52h52V432z M270,378h-52v-52h52
	V378z M270,324h-52v-52h52V324z M270,270h-52v-52h52V270z M270,216h-52v-52h52V216z M270,162h-52v-52h52V162z M270,108h-52V56h52
	V108z M270,54h-52V2h52V54z M324,972h-52v-52h52V972z M324,918h-52v-52h52V918z M324,864h-52v-52h52V864z M324,810h-52v-52h52V810z
	 M324,756h-52v-52h52V756z M324,702h-52v-52h52V702z M324,648h-52v-52h52V648z M324,594h-52v-52h52V594z M324,540h-52v-52h52V540z
	 M324,486h-52v-52h52V486z M324,432h-52v-52h52V432z M324,378h-52v-52h52V378z M324,324h-52v-52h52V324z M324,270h-52v-52h52V270z
	 M324,216h-52v-52h52V216z M324,162h-52v-52h52V162z M324,108h-52V56h52V108z M324,54h-52V2h52V54z M378,972h-52v-52h52V972z
	 M378,918h-52v-52h52V918z M378,864h-52v-52h52V864z M378,810h-52v-52h52V810z M378,756h-52v-52h52V756z M378,702h-52v-52h52V702z
	 M378,648h-52v-52h52V648z M378,594h-52v-52h52V594z M378,540h-52v-52h52V540z M378,486h-52v-52h52V486z M378,432h-52v-52h52V432z
	 M378,378h-52v-52h52V378z M378,324h-52v-52h52V324z M378,270h-52v-52h52V270z M378,216h-52v-52h52V216z M378,162h-52v-52h52V162z
	 M378,108h-52V56h52V108z M378,54h-52V2h52V54z M432,972h-52v-52h52V972z M432,918h-52v-52h52V918z M432,864h-52v-52h52V864z
	 M432,810h-52v-52h52V810z M432,756h-52v-52h52V756z M432,702h-52v-52h52V702z M432,648h-52v-52h52V648z M432,594h-52v-52h52V594z
	 M432,540h-52v-52h52V540z M432,486h-52v-52h52V486z M432,432h-52v-52h52V432z M432,378h-52v-52h52V378z M432,324h-52v-52h52V324z
	 M432,270h-52v-52h52V270z M432,216h-52v-52h52V216z M432,162h-52v-52h52V162z M432,108h-52V56h52V108z M432,54h-52V2h52V54z M434,2
	h52v52h-52V2z M434,56h52v52h-52V56z M434,110h52v47.1c-2.5,0.4-4.5,2.4-4.9,4.9H434V110z M434,164h47.1c0.4,2.5,2.4,4.5,4.9,4.9
	V216h-52V164z M434,218h52v52h-52V218z M434,272h52v52h-52V272z M434,326h52v52h-52V326z M434,380h52v52h-52V380z M434,434h52v47.1
	c-2.5,0.4-4.5,2.4-4.9,4.9H434V434z M434,488h47.1c0.4,2.5,2.4,4.5,4.9,4.9V540h-52V488z M434,542h52v52h-52V542z M434,596h52v52
	h-52V596z M434,650h52v52h-52V650z M434,704h52v52h-52V704z M434,758h52v46.6c-2.8,0.4-4.9,2.6-5.2,5.4H434V758z M486,972h-52v-52
	h52V972z M486,918h-52v-52h52V918z M434,864v-52h47c0.6,2.3,2.6,4.1,5,4.4V864H434z M540,972h-52v-52h52V972z M540,918h-52
	c0,0,0-33,0-46.4V866h52V918z M540,864h-52v-47.6c2.2-0.5,4-2.2,4.6-4.4H540V864z M540,810h-47.2c-0.2-2.7-2.2-4.9-4.8-5.4V758h52
	V810z M540,756h-52v-52h52V756z M540,702h-52v-52h52V702z M540,648h-52v-52h52V648z M540,594h-52v-52h52V594z M540,540h-52v-47.1
	c2.5-0.4,4.5-2.4,4.9-4.9H540V540z M540,486h-47.1c-0.4-2.5-2.4-4.5-4.9-4.9V434h52V486z M540,432h-52v-52h52V432z M540,378h-52v-52
	h52V378z M540,324h-52v-52h52V324z M540,270h-52v-52h52V270z M540,216h-52v-47.1c2.5-0.4,4.5-2.4,4.9-4.9H540V216z M540,162h-47.1
	c-0.4-2.5-2.4-4.5-4.9-4.9V110h52V162z M540,108h-52V56h52V108z M540,54h-52V2h52V54z M594,972h-52v-52h52V972z M594,918h-52v-52h52
	V918z M594,864h-52v-52h52V864z M594,810h-52v-52h52V810z M594,756h-52v-52h52V756z M594,702h-52v-52h52V702z M594,648h-52v-52h52
	V648z M594,594h-52v-52h52V594z M594,540h-52v-52h52V540z M594,486h-52v-52h52V486z M594,432h-52v-52h52V432z M594,378h-52v-52h52
	V378z M594,324h-52v-52h52V324z M594,270h-52v-52h52V270z M594,216h-52v-52h52V216z M594,162h-52v-52h52V162z M594,108h-52V56h52
	V108z M594,54h-52V2h52V54z M648,972h-52v-52h52V972z M648,918h-52v-52h52V918z M648,864h-52v-52h52V864z M648,810h-52v-52h52V810z
	 M648,756h-52v-52h52V756z M648,702h-52v-52h52V702z M648,648h-52v-52h52V648z M648,594h-52v-52h52V594z M648,540h-52v-52h52V540z
	 M648,486h-52v-52h52V486z M648,432h-52v-52h52V432z M648,378h-52v-52h52V378z M648,324h-52v-52h52V324z M648,270h-52v-52h52V270z
	 M648,216h-52v-52h52V216z M648,162h-52v-52h52V162z M648,108h-52V56h52V108z M648,54h-52V2h52V54z M702,972h-52v-52h52V972z
	 M702,918h-52v-52h52V918z M702,864h-52v-52h52V864z M702,810h-52v-52h52V810z M702,756h-52v-52h52V756z M702,702h-52v-52h52V702z
	 M702,648h-52v-52h52V648z M702,594h-52v-52h52V594z M702,540h-52v-52h52V540z M702,486h-52v-52h52V486z M702,432h-52v-52h52V432z
	 M702,378h-52v-52h52V378z M702,324h-52v-52h52V324z M702,270h-52v-52h52V270z M702,216h-52v-52h52V216z M702,162h-52v-52h52V162z
	 M702,108h-52V56h52V108z M702,54h-52V2h52V54z M756,972h-52v-52h52V972z M756,918h-52v-52h52V918z M756,864h-52v-52h52V864z
	 M756,810h-52v-52h52V810z M756,756h-52v-52h52V756z M756,702h-52v-52h52V702z M756,648h-52v-52h52V648z M756,594h-52v-52h52V594z
	 M756,540h-52v-52h52V540z M756,486h-52v-52h52V486z M756,432h-52v-52h52V432z M756,378h-52v-52h52V378z M756,324h-52v-52h52V324z
	 M756,270h-52v-52h52V270z M756,216h-52v-52h52V216z M756,162h-52v-52h52V162z M756,108h-52V56h52V108z M756,54h-52V2h52V54z M758,2
	h52v52h-52V2z M758,56h52v52h-52V56z M758,110h52v47.1c-2.5,0.4-4.5,2.4-4.9,4.9H758V110z M758,164h47.1c0.4,2.5,2.4,4.5,4.9,4.9
	V216h-52V164z M758,218h52v52h-52V218z M758,272h52v52h-52V272z M758,326h52v52h-52V326z M758,380h52v52h-52V380z M758,434h52v46.9
	c-2.6,0.4-4.6,2.5-5,5.1h-47V434z M758,488h47.1c0.5,2.5,2.5,4.4,4.9,4.8V540h-52V488z M758,542h52v52h-52V542z M758,596h52v52h-52
	V596z M758,650h52v52h-52V650z M758,704h52v52h-52V704z M758,758h52v47.3c-2.4,0.5-4.2,2.3-4.7,4.7H758V758z M810,972h-52v-52h52
	V972z M810,918h-52v-52h52V918z M758,864v-52h47.3c0.3,2.5,2.3,4.6,4.7,5.1V864H758z M864,972h-52v-52h52V972z M864,918h-52v-52h52
	V918z M864,864h-52v-46.9c2.7-0.4,4.8-2.5,5.1-5.1H864V864z M864,810h-46.9c-0.5-2.5-2.5-4.4-5.1-4.7V758h52V810z M864,756h-52v-52
	h52V756z M864,702h-52v-52h52V702z M864,648h-52v-52h52V648z M864,594h-52v-52h52V594z M864,540h-52v-47.3c2.4-0.4,4.4-2.3,4.8-4.7
	H864V540z M864,486h-47.1c-0.4-2.6-2.3-4.6-4.9-5.1V434h52V486z M864,432h-52v-52h52V432z M864,378h-52v-52h52V378z M864,324h-52
	v-52h52V324z M864,270h-52v-52h52V270z M864,216h-52v-47.1c2.5-0.4,4.5-2.4,4.9-4.9H864V216z M864,162h-47.1
	c-0.4-2.5-2.4-4.5-4.9-4.9V110h52V162z M864,108h-52V56h52V108z M864,54h-52V2h52V54z M918,972h-52v-52h52V972z M918,918h-52v-52h52
	V918z M918,864h-52v-52h52V864z M918,810h-52v-52h52V810z M918,756h-52v-52h52V756z M918,702h-52v-52h52V702z M918,648h-52v-52h52
	V648z M918,594h-52v-52h52V594z M918,540h-52v-52h52V540z M918,486h-52v-52h52V486z M918,432h-52v-52h52V432z M918,378h-52v-52h52
	V378z M918,324h-52v-52h52V324z M918,270h-52v-52h52V270z M918,216h-52v-52h52V216z M918,162h-52v-52h52V162z M918,108h-52V56h52
	V108z M918,54h-52V2h52V54z M972,972h-52v-52h52V972z M972,918h-52v-52h52V918z M972,864h-52v-52h52V864z M972,810h-52v-52h52V810z
	 M972,756h-52v-52h52V756z M972,702h-52v-52h52V702z M972,648h-52v-52h52V648z M972,594h-52v-52h52V594z M972,540h-52v-52h52V540z
	 M972,486h-52v-52h52V486z M972,432h-52v-52h52V432z M972,378h-52v-52h52V378z M972,324h-52v-52h52V324z M972,270h-52v-52h52V270z
	 M972,216h-52v-52h52V216z M972,162h-52v-52h52V162z M972,108h-52V56h52V108z M972,54h-52V2h52V54z"/>
</svg>
