<?xml version="1.0" encoding="utf-8"?>
<!-- Generator: Adobe Illustrator 19.2.1, SVG Export Plug-In . SVG Version: 6.00 Build 0)  -->
<svg version="1.1" id="Layer_1" xmlns="http://www.w3.org/2000/svg" xmlns:xlink="http://www.w3.org/1999/xlink" x="0px" y="0px"
	 viewBox="0 0 974 974" style="enable-background:new 0 0 974 974;" xml:space="preserve">
<style type="text/css">
	.st0{fill:#432260;}
</style>
<path class="st0" d="M974,650v-2l0,0v-52v-2v-52v-2v-52v-2v-52v-2v-52v-2v-52v-2v-52v-2v-52v-2v-52v-2v-52v-2V56v-2V2V0h-2h-52h-2
	h-52h-2h-52h-2h-52h-2h-52h-2h-52h-2h-52h-2h-52h-2h-52h-2h-52h-2h-52h-2h-52h-2h-52h-2h-52h-2h-52h-2h-52h-2H56h-2H2H0v2v52v2v52v2
	v52v2v52v2v52v2v52v2v52v2v52v2v52v2v52v2v52v2v52v2v52v2v52v2v52v2v52v2v52v2v52v2h2h52h2h52h2h52h2h52h2h52h2h52h2h52h2h52h2h52h2
	h52h2h52h2h52h2h52h2h52h2h52h2h52h2h52h2h52h2v-2l0,0v-52l0,0v-2l0,0v-52l0,0v-2l0,0v-52l0,0v-2l0,0v-52l0,0v-2l0,0v-52l0,0v-2l0,0
	V650L974,650z M920,2h52v52h-52V2z M920,56h52v52h-52V56z M920,110h52v52h-52V110z M920,164h52v52h-52V164z M920,218h52v52h-52V218z
	 M920,272h52v52h-52V272z M920,326h52v52h-52V326z M920,380h52v52h-52V380z M920,434h52v52h-52V434z M920,488h52v52h-52V488z
	 M920,542h52v52h-52V542z M972,596v52h-52v-52H972z M918,648h-52v-52h52V648z M866,2h52v52h-52V2z M866,56h52v52h-52V56z M866,110
	h52v52h-52V110z M866,164h52v52h-52V164z M866,218h52v52h-52V218z M866,272h52v52h-52V272z M866,326h52v52h-52V326z M866,380h52v52
	h-52V380z M866,434h52v52h-52V434z M866,488h52v52h-52V488z M866,542h52v52h-52V542z M812,596h52v52h-52V596z M812,2h52v52h-52V2z
	 M812,56h52v52h-52V56z M812,110h52v52h-52V110z M812,164h52v52h-52V164z M812,218h52v52h-52V218z M812,272h52v52h-52V272z M812,326
	h52v52h-52V326z M812,380h52v52h-52V380z M812,434h52v52h-52V434z M812,488h52v52h-52V488z M812,542h52v52h-52V542z M758,596h52v52
	h-52V596z M758,2h52v52h-52V2z M758,56h52v52h-52V56z M758,110h52v52h-52V110z M758,164h52v52h-52V164z M758,218h52v52h-52V218z
	 M758,272h52v52h-52V272z M758,326h52v52h-52V326z M758,380h52v52h-52V380z M758,434h52v52h-52V434z M758,488h52v52h-52V488z
	 M758,542h52v52h-52V542z M704,596h52v52h-52V596z M704,2h52v52h-52V2z M704,56h52v52h-52V56z M704,110h52v52h-52V110z M704,164h52
	v52h-52V164z M704,218h52v52h-52V218z M704,272h52v52h-52V272z M704,326h52v52h-52V326z M704,380h52v52h-52V380z M704,434h52v52h-52
	V434z M704,488h52v52h-52V488z M704,542h52v52h-52V542z M650,596h52v52h-52V596z M650,2h52v52h-52V2z M650,56h52v52h-52V56z
	 M650,110h52v52h-52V110z M650,164h52v52h-52V164z M650,218h52v52h-52V218z M650,272h52v52h-52V272z M650,326h52v52h-52V326z
	 M650,380h52v52h-52V380z M650,434h52v52h-52V434z M650,488h52v52h-52V488z M650,542h52v52h-52V542z M594,702h-52v-52h52V702z
	 M594,756h-52v-52h52V756z M594,810h-52v-52h52V810z M594,864h-52v-52h52V864z M594,918h-52v-52h52V918z M540,702h-52v-52h52V702z
	 M540,756h-52v-52h52V756z M540,810h-52v-52h52V810z M540,864h-52v-52h52V864z M540,918h-52c0,0,0-33,0-46.4V866l0,0h52V918z
	 M488,648v-52h52v52H488z M540,110v52h-52v-52H540z M488,108V56h52v52H488z M540,164v52h-52v-52H540z M540,218v52h-52v-52H540z
	 M540,272v52h-52v-52H540z M540,326v52h-52v-52H540z M540,380v52h-52v-52H540z M540,434v52h-52v-52H540z M542,648v-52h52v52H542z
	 M596,596h52v52h-52V596z M596,2L596,2h52v52h-52l0,0V2z M596,56L596,56h52v52h-52l0,0V56z M596,110L596,110h52v52h-52l0,0V110z
	 M596,164L596,164h52v52h-52l0,0V164z M596,218L596,218h52v52h-52l0,0V218z M596,272L596,272h52v52h-52l0,0V272z M596,326L596,326
	h52v52h-52l0,0V326z M596,380L596,380h52v52h-52l0,0V380z M596,434L596,434h52v52h-52l0,0V434z M596,488L596,488h52v52h-52l0,0V488z
	 M596,542L596,542h52v52h-52l0,0V542z M542,2h52v52h-52V2z M542,56h52v52h-52V56z M542,110h52v52h-52V110z M542,164h52v52h-52V164z
	 M542,218h52v52h-52V218z M542,272h52v52h-52V272z M542,326h52v52h-52V326z M542,380h52v52h-52V380z M542,434h52v52h-52V434z
	 M542,488h52v52h-52V488z M542,542h52v52h-52V542z M488,2h52v52h-52V2z M488,488L488,488h52v52h-52V488z M488,542L488,542h52v52h-52
	V542z M434,2h52v52h-52V2z M434,56h52v52h-52V56z M434,110h52v52h-52V110z M434,164h52v52h-52V164z M434,218h52v52h-52V218z
	 M434,272h52v52h-52V272z M434,326h52v52h-52V326z M434,380h52v52h-52V380z M434,434h52v52h-52V434z M434,488h52v52h-52V488z
	 M434,542h52v52h-52V542z M486,596v52h-52v-52H486z M486,702h-52v-52h52V702z M486,756h-52v-52h52V756z M486,810h-52v-52h52V810z
	 M486,864h-52v-52h52V864z M486,918h-52v-52h52V918z M380,2h52v52h-52V2z M380,56h52v52h-52V56z M380,110h52v52h-52V110z M380,164
	h52v52h-52V164z M380,218h52v52h-52V218z M380,272h52v52h-52V272z M380,326h52v52h-52V326z M380,380h52v52h-52V380z M380,434h52v52
	h-52V434z M380,488h52v52h-52V488z M380,542h52v52h-52V542z M432,596v52h-52v-52H432z M432,702h-52v-52h52V702z M432,756h-52v-52h52
	V756z M432,810h-52v-52h52V810z M432,864h-52v-52h52V864z M432,918h-52v-52h52V918z M326,2h52v52h-52V2z M326,56h52v52h-52V56z
	 M326,110h52v52h-52V110z M326,164h52v52h-52V164z M326,218h52v52h-52V218z M326,272h52v52h-52V272z M326,326h52v52h-52V326z
	 M326,380h52v52h-52V380z M326,434h52v52h-52V434z M326,488h52v52h-52V488z M326,542h52v52h-52V542z M378,596v52h-52v-52H378z
	 M378,702h-52v-52h52V702z M378,756h-52v-52h52V756z M378,810h-52v-52h52V810z M378,864h-52v-52h52V864z M378,918h-52v-52h52V918z
	 M272,2h52v52h-52V2z M272,56h52v52h-52V56z M272,110h52v52h-52V110z M272,164h52v52h-52V164z M272,218h52v52h-52V218z M272,272h52
	v52h-52V272z M272,326h52v52h-52V326z M272,380h52v52h-52V380z M272,434h52v52h-52V434z M272,488h52v52h-52V488z M272,542h52v52h-52
	V542z M324,596v52h-52v-52H324z M218,2h52v52h-52V2z M218,56h52v52h-52V56z M218,110h52v52h-52V110z M218,164h52v52h-52V164z
	 M218,218h52v52h-52V218z M218,272h52v52h-52V272z M218,326h52v52h-52V326z M218,380h52v52h-52V380z M218,434h52v52h-52V434z
	 M218,488h52v52h-52V488z M218,542h52v52h-52V542z M270,596v52h-52v-52H270z M164,2h52v52h-52V2z M164,56h52v52h-52V56z M164,110h52
	v52h-52V110z M164,164h52v52h-52V164z M164,218h52v52h-52V218z M164,272h52v52h-52V272z M164,326h52v52h-52V326z M164,380h52v52h-52
	V380z M164,434h52v52h-52V434z M164,488h52v52h-52V488z M164,542h52v52h-52V542z M216,596v52h-52v-52H216z M162,648h-52v-52h52V648z
	 M110,2h52v52h-52V2z M110,56h52v52h-52V56z M110,110h52v52h-52V110z M110,164h52v52h-52V164z M110,218h52v52h-52V218z M110,272h52
	v52h-52V272z M110,326h52v52h-52V326z M110,380h52v52h-52V380z M110,434h52v52h-52V434z M110,488h52v52h-52V488z M162,542v52h-52
	v-52H162z M56,2h52v52H56V2z M56,56h52v52H56V56z M56,110h52v52H56V110z M56,164h52v52H56V164z M56,218h52v52H56V218z M56,272h52v52
	H56V272z M56,326h52v52H56V326z M56,380h52v52H56V380z M56,434h52v52H56V434z M56,488h52v52H56V488z M56,542h52v52H56V542z M108,596
	v52H56v-52H108z M2,2h52v52H2V2z M2,56h52v52H2V56z M2,110h52v52H2V110z M2,164h52v52H2V164z M2,218h52v52H2V218z M2,272h52v52H2
	V272z M2,326h52v52H2V326z M2,380h52v52H2V380z M2,434h52v52H2V434z M2,488h52v52H2V488z M2,542h52v52H2V542z M54,596v52H2v-52H54z
	 M54,972H2v-52h52V972z M54,918H2v-52h52V918z M54,864H2v-52h52V864z M54,810H2v-52h52V810z M54,756H2v-52h52V756z M54,702H2v-52h52
	V702z M108,972H56v-52h52V972z M108,918H56v-52h52V918z M108,864H56v-52h52V864z M108,810H56v-52h52V810z M108,756H56v-52h52V756z
	 M108,702H56v-52h52V702z M162,972h-52v-52h52V972z M162,918h-52v-52h52V918z M162,864h-52v-52h52V864z M162,810h-52v-52h52V810z
	 M162,756h-52v-52h52V756z M162,702h-52v-52h52l0,0V702z M216,972h-52v-52h52V972z M216,918h-52v-52h52V918z M216,864h-52v-52h52
	V864z M216,810h-52v-52h52V810z M216,756h-52v-52h52V756z M216,702h-52v-52h52l0,0V702z M270,972h-52v-52h52V972z M270,918h-52v-52
	h52V918z M270,864h-52v-52h52V864z M270,810h-52v-52h52V810z M270,756h-52v-52h52V756z M270,702h-52v-52h52l0,0V702z M324,972h-52
	v-52h52V972z M324,918h-52v-52h52V918z M324,864h-52v-52h52V864z M324,810h-52v-52h52V810z M324,756h-52v-52h52V756z M324,702h-52
	v-52h52l0,0V702z M326,972v-52h52v52H326z M380,972v-52h52v52H380z M434,972v-52h52v52H434z M488,972v-52h52v52H488z M542,972v-52
	h52v52H542z M648,972h-52v-52h52V972z M648,918h-52v-52h52V918z M648,864h-52v-52h52V864z M648,810h-52v-52h52V810z M648,756h-52
	v-52h52V756z M648,702h-52v-52h52l0,0V702z M702,972h-52v-52h52V972z M702,918h-52v-52h52V918z M702,864h-52v-52h52V864z M702,810
	h-52v-52h52V810z M702,756h-52v-52h52V756z M702,702h-52v-52h52l0,0V702z M756,972h-52v-52h52V972z M756,918h-52v-52h52V918z
	 M756,864h-52v-52h52V864z M756,810h-52v-52h52V810z M756,756h-52v-52h52V756z M756,702h-52v-52h52l0,0V702z M810,972h-52v-52h52
	V972z M810,918h-52v-52h52V918z M810,864h-52v-52h52V864z M810,810h-52v-52h52V810z M810,756h-52v-52h52V756z M810,702h-52v-52h52
	l0,0V702z M864,972h-52v-52h52V972z M864,918h-52v-52h52V918z M864,864h-52v-52h52V864z M864,810h-52v-52h52V810z M864,756h-52v-52
	h52V756z M864,702h-52v-52h52l0,0V702z M918,972h-52v-52h52V972z M918,918h-52v-52l0,0h52V918z M918,864h-52v-52l0,0h52V864z
	 M918,810h-52v-52h52V810z M918,756h-52v-52h52V756z M918,702h-52v-52h52V702z M972,972h-52v-52h52V972z M972,918h-52v-52h52V918z
	 M972,864h-52v-52h52V864z M972,810h-52v-52h52V810z M972,756h-52v-52h52V756z M972,702h-52v-52h52V702z"/>
<circle class="st0" cx="163" cy="163" r="6"/>
<circle class="st0" cx="811" cy="163" r="6"/>
<circle class="st0" cx="487" cy="163" r="6"/>
<circle class="st0" cx="162.8" cy="811.5" r="6"/>
<circle class="st0" cx="811.2" cy="811.2" r="6"/>
<circle class="st0" cx="486.8" cy="810.5" r="6"/>
<circle class="st0" cx="163" cy="487" r="6"/>
<circle class="st0" cx="811" cy="486.8" r="6"/>
<circle class="st0" cx="487" cy="487" r="6"/>
</svg>
