<?xml version="1.0" encoding="utf-8"?>
<!-- Generator: Adobe Illustrator 19.2.1, SVG Export Plug-In . SVG Version: 6.00 Build 0)  -->
<svg version="1.1" id="Layer_1" xmlns="http://www.w3.org/2000/svg" xmlns:xlink="http://www.w3.org/1999/xlink" x="0px" y="0px"
	 viewBox="0 0 434 434" style="enable-background:new 0 0 434 434;" xml:space="preserve">
<path d="M432,0h-52h-2h-52h-2h-52h-2h-52h-2h-52h-2h-52h-2H56h-2H2H0v2v52v2v52v2v52v2v52v2v52v2v52v2v52v2v52v2h434V0H432z M54,432
	H2v-52h52V432z M54,378H2v-52h52V378z M54,324H2v-52h52V324z M54,270H2v-52h52V270z M54,216H2v-52h52V216z M54,162H2v-52h52V162z
	 M54,108H2V56h52V108z M54,54H2V2h52V54z M56,2h52v52H56V2z M56,56h52v47.1c-2.5,0.4-4.5,2.4-4.9,4.9H56V56z M56,110h47.1
	c0.4,2.5,2.4,4.5,4.9,4.9V162H56V110z M56,164h52v52H56V164z M56,218h52v52H56V218z M56,272h52v46.2c-2.8,0.5-5,2.9-5,5.8H56V272z
	 M108,432H56v-52h52V432z M56,378v-52h47.3c0.7,2.1,2.5,3.6,4.7,4v48H56z M162,432h-52v-52h52V432z M162,378h-52v-48
	c2.2-0.4,3.9-1.9,4.6-4H162V378z M162,324h-47c0-2.9-2.2-5.3-4.9-5.8V272h52v52H162z M162,270h-52v-52h52V270z M162,216h-52v-52h52
	V216z M162,162h-52v-47.1c2.5-0.4,4.5-2.4,4.9-4.9H162V162z M162,108h-47.1c-0.4-2.5-2.4-4.5-4.9-4.9V56h52V108z M162,54h-52V2h52
	V54z M164,2h52v52h-52V2z M164,56h52v52h-52V56z M164,110h52v52h-52V110z M164,164h52v47.1c-2.5,0.4-4.5,2.4-4.9,4.9H164V164z
	 M216,432h-52v-52h52V432z M216,378h-52v-52h52V378z M216,324h-52v-52h52V324z M164,270v-52h47.1c0.4,2.5,2.4,4.5,4.9,4.9V270H164z
	 M270,432h-52v-52h52V432z M270,378h-52v-52h52V378z M270,324h-52v-52h52V324z M270,270h-52v-47.1c2.5-0.4,4.5-2.4,4.9-4.9H270V270z
	 M270,216h-47.1c-0.4-2.5-2.4-4.5-4.9-4.9V164h52V216z M270,162h-52v-52h52V162z M270,108h-52V56h52V108z M270,54h-52V2h52V54z
	 M272,2h52v52h-52V2z M272,56h52v47.1c-2.5,0.4-4.5,2.4-4.9,4.9H272V56z M272,110h47.1c0.4,2.5,2.4,4.5,4.9,4.9V162h-52V110z
	 M272,164h52v52h-52V164z M272,218h52v52h-52V218z M272,272h52v47.3c-2,0.7-3.5,2.5-3.9,4.7H272V272z M324,432h-52v-52h52V432z
	 M272,378v-52h48.1c0.4,2.2,1.9,3.9,3.9,4.7V378H272z M378,432h-52v-52h52V432z M378,378h-52v-47c3,0,5.4-2.2,5.9-5H378V378z
	 M378,324h-46.1c-0.5-2.8-2.9-5-5.9-5v-47h52V324z M378,270h-52v-52h52V270z M378,216h-52v-52h52V216z M378,162h-52v-47.1
	c2.5-0.4,4.5-2.4,4.9-4.9H378V162z M378,108h-47.1c-0.4-2.5-2.4-4.5-4.9-4.9V56h52V108z M378,54h-52V2h52V54z M432,432h-52v-52h52
	V432z M432,378h-52v-52h52V378z M432,324h-52v-52h52V324z M432,270h-52v-52h52V270z M432,216h-52v-52h52V216z M432,162h-52v-52h52
	V162z M432,108h-52V56h52V108z M432,54h-52V2h52V54z"/>
</svg>
